<svg width="63" height="79" viewBox="0 0 63 79" fill="none" xmlns="http://www.w3.org/2000/svg">
<path d="M11.9416 18.3457C12.1994 15.993 14.2942 11.7601 15.7371 9.77429C11.6201 12.1925 5.42347 20.0614 8.78439 29.2674C12.9855 40.7749 22.5918 50.7325 28.0376 75.298C28.9999 43.3831 10.3365 32.9918 11.9416 18.3457Z" fill="#A5272A"/>
<path d="M40.6536 4.74483C31.2095 3.2067 23.0674 4.78239 15.7373 9.77427C14.2945 11.7601 12.1996 15.9929 11.9418 18.3457C10.3367 32.9918 29.0001 43.3831 28.0378 75.298C29.5701 74.8928 37.2268 66.9822 41.9915 61.1043C50.9361 50.07 56.8815 41.4639 58.9588 28.709C59.8632 23.1562 59.7924 16.6941 57.269 13.0668C54.7455 9.43943 47.2579 5.82045 40.6536 4.74483Z" fill="url(#paint0_linear)"/>
<path d="M34.2672 45.0882H38.1727C38.7118 45.0882 39.1486 44.6513 39.1486 44.1117V26.5385H45.983C46.5221 26.5385 46.959 26.1017 46.959 25.562V21.6571C46.959 21.1175 46.5221 20.6806 45.983 20.6806H39.1486V14.8227C39.1486 14.2831 38.7118 13.8468 38.1727 13.8468H34.2672C33.7282 13.8468 33.2913 14.2831 33.2913 14.8227V20.6806H26.4569C25.9178 20.6806 25.481 21.1175 25.481 21.6571V25.562C25.481 26.1017 25.9178 26.5385 26.4569 26.5385H33.2913V44.1117C33.2913 44.6513 33.7282 45.0882 34.2672 45.0882Z" fill="white"/>
<defs>
<linearGradient id="paint0_linear" x1="38.5609" y1="4.40401" x2="27.0411" y2="75.1356" gradientUnits="userSpaceOnUse">
<stop stop-color="#C2383D"/>
<stop offset="1" stop-color="#B03034"/>
</linearGradient>
</defs>
</svg>
