<svg width="56" height="66" viewBox="0 0 56 66" fill="none" xmlns="http://www.w3.org/2000/svg">
<circle cx="11" cy="13" r="1" fill="#D22D49"/>
<circle cx="27" cy="13" r="1" fill="#D22D49"/>
<circle cx="43" cy="13" r="1" fill="#D22D49"/>
<circle cx="3" cy="13" r="1" fill="#D22D49"/>
<circle cx="19" cy="13" r="1" fill="#D22D49"/>
<circle cx="35" cy="13" r="1" fill="#D22D49"/>
<circle cx="51" cy="13" r="1" fill="#D22D49"/>
<circle cx="11" cy="5" r="1" fill="#D22D49"/>
<circle cx="27" cy="5" r="1" fill="#D22D49"/>
<circle cx="43" cy="5" r="1" fill="#D22D49"/>
<circle cx="3" cy="5" r="1" fill="#D22D49"/>
<circle cx="19" cy="5" r="1" fill="#D22D49"/>
<circle cx="35" cy="5" r="1" fill="#D22D49"/>
<circle cx="51" cy="5" r="1" fill="#D22D49"/>
<circle cx="15" cy="9" r="1" fill="#D22D49"/>
<circle cx="31" cy="9" r="1" fill="#D22D49"/>
<circle cx="47" cy="9" r="1" fill="#D22D49"/>
<circle cx="7" cy="9" r="1" fill="#D22D49"/>
<circle cx="23" cy="9" r="1" fill="#D22D49"/>
<circle cx="39" cy="9" r="1" fill="#D22D49"/>
<circle cx="55" cy="9" r="1" fill="#D22D49"/>
<circle cx="15" cy="1" r="1" fill="#D22D49"/>
<circle cx="31" cy="1" r="1" fill="#D22D49"/>
<circle cx="47" cy="1" r="1" fill="#D22D49"/>
<circle cx="7" cy="1" r="1" fill="#D22D49"/>
<circle cx="23" cy="1" r="1" fill="#D22D49"/>
<circle cx="39" cy="1" r="1" fill="#D22D49"/>
<circle cx="55" cy="1" r="1" fill="#D22D49"/>
<circle cx="15" cy="17" r="1" fill="#D22D49"/>
<circle cx="31" cy="17" r="1" fill="#D22D49"/>
<circle cx="47" cy="17" r="1" fill="#D22D49"/>
<circle cx="7" cy="17" r="1" fill="#D22D49"/>
<circle cx="23" cy="17" r="1" fill="#D22D49"/>
<circle cx="39" cy="17" r="1" fill="#D22D49"/>
<circle cx="55" cy="17" r="1" fill="#D22D49"/>
<circle cx="11" cy="29" r="1" fill="#D22D49"/>
<circle cx="27" cy="29" r="1" fill="#D22D49"/>
<circle cx="43" cy="29" r="1" fill="#D22D49"/>
<circle cx="3" cy="29" r="1" fill="#D22D49"/>
<circle cx="19" cy="29" r="1" fill="#D22D49"/>
<circle cx="35" cy="29" r="1" fill="#D22D49"/>
<circle cx="51" cy="29" r="1" fill="#D22D49"/>
<circle cx="11" cy="21" r="1" fill="#D22D49"/>
<circle cx="27" cy="21" r="1" fill="#D22D49"/>
<circle cx="43" cy="21" r="1" fill="#D22D49"/>
<circle cx="3" cy="21" r="1" fill="#D22D49"/>
<circle cx="19" cy="21" r="1" fill="#D22D49"/>
<circle cx="35" cy="21" r="1" fill="#D22D49"/>
<circle cx="51" cy="21" r="1" fill="#D22D49"/>
<circle cx="15" cy="25" r="1" fill="#D22D49"/>
<circle cx="31" cy="25" r="1" fill="#D22D49"/>
<circle cx="47" cy="25" r="1" fill="#D22D49"/>
<circle cx="7" cy="25" r="1" fill="#D22D49"/>
<circle cx="23" cy="25" r="1" fill="#D22D49"/>
<circle cx="39" cy="25" r="1" fill="#D22D49"/>
<circle cx="55" cy="25" r="1" fill="#D22D49"/>
<circle cx="15" cy="33" r="1" fill="#D22D49"/>
<circle cx="31" cy="33" r="1" fill="#D22D49"/>
<circle cx="47" cy="33" r="1" fill="#D22D49"/>
<circle cx="7" cy="33" r="1" fill="#D22D49"/>
<circle cx="23" cy="33" r="1" fill="#D22D49"/>
<circle cx="39" cy="33" r="1" fill="#D22D49"/>
<circle cx="55" cy="33" r="1" fill="#D22D49"/>
<circle cx="11" cy="45" r="1" fill="#D22D49"/>
<circle cx="27" cy="45" r="1" fill="#D22D49"/>
<circle cx="43" cy="45" r="1" fill="#D22D49"/>
<circle cx="3" cy="45" r="1" fill="#D22D49"/>
<circle cx="19" cy="45" r="1" fill="#D22D49"/>
<circle cx="35" cy="45" r="1" fill="#D22D49"/>
<circle cx="51" cy="45" r="1" fill="#D22D49"/>
<circle cx="11" cy="37" r="1" fill="#D22D49"/>
<circle cx="27" cy="37" r="1" fill="#D22D49"/>
<circle cx="43" cy="37" r="1" fill="#D22D49"/>
<circle cx="3" cy="37" r="1" fill="#D22D49"/>
<circle cx="19" cy="37" r="1" fill="#D22D49"/>
<circle cx="35" cy="37" r="1" fill="#D22D49"/>
<circle cx="51" cy="37" r="1" fill="#D22D49"/>
<circle cx="15" cy="41" r="1" fill="#D22D49"/>
<circle cx="31" cy="41" r="1" fill="#D22D49"/>
<circle cx="47" cy="41" r="1" fill="#D22D49"/>
<circle cx="7" cy="41" r="1" fill="#D22D49"/>
<circle cx="23" cy="41" r="1" fill="#D22D49"/>
<circle cx="39" cy="41" r="1" fill="#D22D49"/>
<circle cx="55" cy="41" r="1" fill="#D22D49"/>
<circle cx="15" cy="49" r="1" fill="#D22D49"/>
<circle cx="31" cy="49" r="1" fill="#D22D49"/>
<circle cx="47" cy="49" r="1" fill="#D22D49"/>
<circle cx="7" cy="49" r="1" fill="#D22D49"/>
<circle cx="23" cy="49" r="1" fill="#D22D49"/>
<circle cx="39" cy="49" r="1" fill="#D22D49"/>
<circle cx="55" cy="49" r="1" fill="#D22D49"/>
<circle cx="11" cy="61" r="1" fill="#D22D49"/>
<circle cx="27" cy="61" r="1" fill="#D22D49"/>
<circle cx="43" cy="61" r="1" fill="#D22D49"/>
<circle cx="3" cy="61" r="1" fill="#D22D49"/>
<circle cx="19" cy="61" r="1" fill="#D22D49"/>
<circle cx="35" cy="61" r="1" fill="#D22D49"/>
<circle cx="51" cy="61" r="1" fill="#D22D49"/>
<circle cx="11" cy="53" r="1" fill="#D22D49"/>
<circle cx="27" cy="53" r="1" fill="#D22D49"/>
<circle cx="43" cy="53" r="1" fill="#D22D49"/>
<circle cx="3" cy="53" r="1" fill="#D22D49"/>
<circle cx="19" cy="53" r="1" fill="#D22D49"/>
<circle cx="35" cy="53" r="1" fill="#D22D49"/>
<circle cx="51" cy="53" r="1" fill="#D22D49"/>
<circle cx="15" cy="57" r="1" fill="#D22D49"/>
<circle cx="31" cy="57" r="1" fill="#D22D49"/>
<circle cx="47" cy="57" r="1" fill="#D22D49"/>
<circle cx="7" cy="57" r="1" fill="#D22D49"/>
<circle cx="23" cy="57" r="1" fill="#D22D49"/>
<circle cx="39" cy="57" r="1" fill="#D22D49"/>
<circle cx="55" cy="57" r="1" fill="#D22D49"/>
<circle cx="15" cy="65" r="1" fill="#D22D49"/>
<circle cx="31" cy="65" r="1" fill="#D22D49"/>
<circle cx="47" cy="65" r="1" fill="#D22D49"/>
<circle cx="7" cy="65" r="1" fill="#D22D49"/>
<circle cx="23" cy="65" r="1" fill="#D22D49"/>
<circle cx="39" cy="65" r="1" fill="#D22D49"/>
<circle cx="55" cy="65" r="1" fill="#D22D49"/>
</svg>
