<svg width="773" height="68" viewBox="0 0 773 68" fill="none" xmlns="http://www.w3.org/2000/svg">
<mask id="mask0" mask-type="alpha" maskUnits="userSpaceOnUse" x="0" y="0" width="773" height="68">
<rect width="773" height="68" fill="#B03034"/>
</mask>
<g mask="url(#mask0)">
<rect width="773" height="68" fill="#B03034"/>
<path d="M-28.8682 -82.1611L87.9803 34.2193V60.119L-28.8682 -56.2614V-82.1611Z" fill="#A5272A"/>
<path d="M-37.1162 -23.0494L79.7322 93.331V119.231L-37.1162 2.85026V-23.0494Z" fill="#A5272A"/>
<path d="M114.787 -101.407L231.635 14.9737V40.8734L114.787 -75.507V-101.407Z" fill="#A5272A"/>
<path d="M120.973 6.50623L237.821 122.887V148.786L120.973 32.4059V6.50623Z" fill="#A5272A"/>
<path d="M258.441 -39.5458L375.29 76.8347V102.734L258.441 -13.6461V-39.5458Z" fill="#A5272A"/>
<path d="M356.732 15.4417L473.58 131.822V157.722L356.732 41.3413V15.4417Z" fill="#A5272A"/>
<path d="M329.238 -88.3472L446.086 28.0333V53.933L329.238 -62.4475V-88.3472Z" fill="#A5272A"/>
<path d="M389.724 -115.841L506.573 0.53952V26.4392L389.724 -89.9412V-115.841Z" fill="#A5272A"/>
<path d="M575.307 7.1936L692.156 123.574V149.474L575.307 33.0933V7.1936Z" fill="#A5272A"/>
<path d="M658.476 27.814L775.324 144.194V170.094L658.476 53.7137V27.814Z" fill="#A5272A"/>
<path d="M648.166 -81.4738L765.014 34.9067V60.8064L648.166 -55.5741V-81.4738Z" fill="#A5272A"/>
<path d="M756.078 -36.7964L872.927 79.5841V105.484L756.078 -10.8967V-36.7964Z" fill="#A5272A"/>
</g>
</svg>
